<svg xmlns="http://www.w3.org/2000/svg" width="1080" height="315" viewBox="0 0 1080 315">
  <defs>
    <style>
      .cls-1 {
        font-size: 216.667px;
        fill: #14a93e;
        font-family: "Nova Square";
      }

      .cls-2 {
        fill: #28c3f0;
      }

      .cls-3 {
        fill: #9224df;
      }

      .cls-4 {
        fill: #d4df24;
      }

      .cls-5 {
        fill: #24c7df;
      }

      .cls-6 {
        fill: #2166e4;
        fill-rule: evenodd;
      }
    </style>
  </defs>
  <text id="ENCODE" class="cls-1" x="216" y="244.5">E<tspan class="cls-2">N<tspan class="cls-3">C<tspan class="cls-4">O<tspan class="cls-5">D</tspan></tspan></tspan></tspan>E</text>
  <path id="Rounded_Rectangle_1" data-name="Rounded Rectangle 1" class="cls-6" d="M189.361,98.564a6,6,0,0,1,2.69,8.047l-63.4,127.06a6,6,0,0,1-10.738-5.358l63.4-127.06A6,6,0,0,1,189.361,98.564Zm0,0a6,6,0,0,1,2.69,8.047l-63.4,127.06a6,6,0,0,1-10.738-5.358l63.4-127.06A6,6,0,0,1,189.361,98.564Zm0-2.236a6,6,0,0,1,2.69,8.047l-63.4,127.06a6,6,0,0,1-10.737-5.358l63.4-127.06A6,6,0,0,1,189.359,96.328Zm0,2.236a6,6,0,0,1,2.69,8.047l-63.4,127.06a6,6,0,0,1-10.738-5.358l63.4-127.06A6,6,0,0,1,189.361,98.564Zm0,0a6,6,0,0,1,2.69,8.047l-63.4,127.06a6,6,0,0,1-10.738-5.358l63.4-127.06A6,6,0,0,1,189.361,98.564Zm0-2.236a6,6,0,0,1,2.69,8.047l-63.4,127.06a6,6,0,0,1-10.737-5.358l63.4-127.06A6,6,0,0,1,189.359,96.328Z"/>
  <path id="Rounded_Rectangle_1-2" data-name="Rounded Rectangle 1" class="cls-6" d="M143.389,57.064a6,6,0,0,1,2.629,8.068L81.663,191.711a6,6,0,0,1-10.7-5.438l64.354-126.58A6,6,0,0,1,143.389,57.064Zm0,0a6,6,0,0,1,2.629,8.068L81.663,191.711a6,6,0,0,1-10.7-5.438l64.354-126.58A6,6,0,0,1,143.389,57.064Zm0.015-2.236a6,6,0,0,1,2.629,8.068L81.678,189.475a6,6,0,0,1-10.7-5.438l64.354-126.58A6,6,0,0,1,143.4,54.828Zm-0.015,2.236a6,6,0,0,1,2.629,8.068L81.663,191.711a6,6,0,0,1-10.7-5.438l64.354-126.58A6,6,0,0,1,143.389,57.064Zm0,0a6,6,0,0,1,2.629,8.068L81.663,191.711a6,6,0,0,1-10.7-5.438l64.354-126.58A6,6,0,0,1,143.389,57.064Zm0.015-2.236a6,6,0,0,1,2.629,8.068L81.678,189.475a6,6,0,0,1-10.7-5.438l64.354-126.58A6,6,0,0,1,143.4,54.828Z"/>
  <path id="Rounded_Rectangle_1-3" data-name="Rounded Rectangle 1" class="cls-6" d="M84.462,108.77a5.986,5.986,0,0,1,7.984,2.814l61.179,127.777a5.986,5.986,0,1,1-10.8,5.17L81.648,116.754A5.986,5.986,0,0,1,84.462,108.77Zm0,0a5.986,5.986,0,0,1,7.984,2.814l61.179,127.777a5.986,5.986,0,1,1-10.8,5.17L81.648,116.754A5.986,5.986,0,0,1,84.462,108.77ZM82.7,107.4a5.987,5.987,0,0,1,7.984,2.814l61.179,127.778a5.986,5.986,0,1,1-10.8,5.17L79.887,115.385A5.986,5.986,0,0,1,82.7,107.4Zm1.761,1.369a5.986,5.986,0,0,1,7.984,2.814l61.179,127.777a5.986,5.986,0,1,1-10.8,5.17L81.648,116.754A5.986,5.986,0,0,1,84.462,108.77Zm0,0a5.986,5.986,0,0,1,7.984,2.814l61.179,127.777a5.986,5.986,0,1,1-10.8,5.17L81.648,116.754A5.986,5.986,0,0,1,84.462,108.77ZM82.7,107.4a5.987,5.987,0,0,1,7.984,2.814l61.179,127.778a5.986,5.986,0,1,1-10.8,5.17L79.887,115.385A5.986,5.986,0,0,1,82.7,107.4Z"/>
  <path id="Rounded_Rectangle_1-4" data-name="Rounded Rectangle 1" class="cls-6" d="M148.646,108.9a6,6,0,0,1,2.682,8.051l-63.517,127a6,6,0,0,1-10.733-5.368l63.517-127A6,6,0,0,1,148.646,108.9Zm0,0a6,6,0,0,1,2.682,8.051l-63.517,127a6,6,0,0,1-10.733-5.368l63.517-127A6,6,0,0,1,148.646,108.9Zm0-2.236a6,6,0,0,1,2.682,8.05l-63.517,127a6,6,0,0,1-10.733-5.368l63.518-127A6,6,0,0,1,148.646,106.66Zm0,2.236a6,6,0,0,1,2.682,8.051l-63.517,127a6,6,0,0,1-10.733-5.368l63.517-127A6,6,0,0,1,148.646,108.9Zm0,0a6,6,0,0,1,2.682,8.051l-63.517,127a6,6,0,0,1-10.733-5.368l63.517-127A6,6,0,0,1,148.646,108.9Zm0-2.236a6,6,0,0,1,2.682,8.05l-63.517,127a6,6,0,0,1-10.733-5.368l63.518-127A6,6,0,0,1,148.646,106.66Z"/>
  <path class="cls-6" d="M162,74c5.523,0,10,4.029,10,9s-4.477,9-10,9-10-4.029-10-9S156.477,74,162,74Zm0,0c5.523,0,10,4.029,10,9s-4.477,9-10,9-10-4.029-10-9S156.477,74,162,74Z"/>
  <path class="cls-6" d="M109,247c5.523,0,10,4.029,10,9s-4.477,9-10,9-10-4.029-10-9S103.477,247,109,247Zm0,0c5.523,0,10,4.029,10,9s-4.477,9-10,9-10-4.029-10-9S103.477,247,109,247Z"/>
  <path class="cls-6" d="M58,212c5.523,0,10,4.029,10,9s-4.477,9-10,9-10-4.029-10-9S52.477,212,58,212Zm0,0c5.523,0,10,4.029,10,9s-4.477,9-10,9-10-4.029-10-9S52.477,212,58,212Z"/>
</svg>
